
        <svg xmlns="http://www.w3.org/2000/svg" xmlns:xlink="http://www.w3.org/1999/xlink" version="1.1" width="3200" height="1400" viewBox="0 0 3200 1400">
			
			<g transform="scale(10) translate(10, 10)">
				<defs id="SvgjsDefs1326"/><g id="SvgjsG1327" featureKey="rootContainer" transform="matrix(1,0,0,1,0,0)" fill="#fff"><path xmlns="http://www.w3.org/2000/svg" fill-rule="evenodd" d=" M0,0 H300 V120 H0,0 z M2,2 H298 V118 H2,2 z M6,6 H294 V114 H6 z M8,8 H292 V112 H6,8 z "/></g><g id="SvgjsG1328" featureKey="nameFeature-0" transform="matrix(0.6442936658859253,0,0,0.6442936658859253,49.36229844962164,43.61730847142564)" fill="#fff"><path d="M15.08 11.920000000000002 c9.68 0 14.92 5.76 14.92 13.48 c0 7.68 -5.24 14.68 -14.96 14.68 c-1.92 0 -4.4 -0.24 -7.36 -0.24 c-2.48 0 -4.44 0.04 -6.28 0.24 c-0.4 0.04 -0.56 -1.36 -0.24 -1.44 c2.32 -0.6 4.12 -0.96 4.12 -3.92 l0 -7.72 l-2.96 0 c-0.68 0 -0.68 -2.04 0 -2.04 l2.96 0 l0 -8 c0 -2.56 -1.64 -3.24 -3.36 -3.68 c-0.32 -0.08 -0.12 -1.4 0.2 -1.36 c1.64 0.2 3.32 0.24 5 0.24 c3.12 0 5.92 -0.24 7.96 -0.24 z M15.44 37.96 c6.52 0 9.76 -3.52 9.76 -10.28 c0 -7.64 -4.16 -13.64 -11.36 -13.64 c-2.84 0 -3.76 0.88 -3.76 2.92 l0 8 l3.08 0 c0.68 0 0.68 2.04 0 2.04 l-3.08 0 l0 7.72 c0 2.16 1.48 3.24 5.36 3.24 z M39.086 40.64 c-3.76 0 -4.84 -2.88 -4.84 -5.4 l0 -8.84 c0 -2 -1.56 -2.56 -2.72 -2.72 c-0.28 -0.04 -0.16 -1.04 0.16 -1.12 l6.36 -1.88 c0.48 -0.16 0.84 0.24 0.72 0.72 c-0.4 1.6 -0.24 3.28 -0.24 4.48 l0 8.04 c0 2.48 0.8 3.64 2.92 3.64 c2 0 5.52 -0.52 5.52 -2.88 l0 -8.28 c0 -2 -1.56 -2.56 -2.72 -2.72 c-0.28 -0.04 -0.16 -1.04 0.16 -1.12 l6.36 -1.88 c0.48 -0.16 0.84 0.24 0.72 0.72 c-0.4 1.6 -0.24 3.36 -0.24 4.56 l0 9.68 c0 3.4 2.88 2 3.44 2.36 c0.2 0.12 0.28 0.4 0.28 0.56 c0 0.84 -3.48 2.08 -5.16 2.08 c-1.28 0 -2.2 -2.84 -3.72 -2.08 c-1.6 0.8 -4.44 2.08 -7 2.08 z M55.372 40 c-0.32 0 -0.6 -1.16 -0.28 -1.2 c1.2 -0.16 2.72 -0.72 2.72 -3.04 l0 -17.6 c0 -4.4 -0.6 -5.24 -3.08 -5.52 c-0.32 -0.04 -0.2 -1.08 0.08 -1.12 l7.44 -1.6 c0.36 -0.08 0.68 0.2 0.56 0.72 c-0.28 1.28 -0.72 3.84 -0.72 9.12 l0 16 c0 2.32 1.52 2.88 2.76 3.04 c0.28 0.04 0.04 1.2 -0.28 1.2 l-9.2 0 z M65.978 40 c-0.32 0 -0.6 -1.16 -0.28 -1.2 c1.2 -0.16 2.72 -0.72 2.72 -3.04 l0 -17.6 c0 -4.4 -0.6 -5.24 -3.08 -5.52 c-0.32 -0.04 -0.2 -1.08 0.08 -1.12 l7.44 -1.6 c0.36 -0.08 0.68 0.2 0.56 0.72 c-0.28 1.28 -0.72 3.84 -0.72 9.12 l0 16 c0 2.32 1.52 2.88 2.76 3.04 c0.28 0.04 0.04 1.2 -0.28 1.2 l-9.2 0 z M84.65799999999999 40.68 c-2.4 -0.32 -8.2 -6.88 -10.52 -10.24 c-0.36 -0.52 -0.44 -0.92 0.12 -1.36 c3.36 -2.64 5.92 -4.92 4.12 -6.4 c-0.64 -0.52 -0.44 -1.28 0.24 -1.28 l8.48 0 c0.76 0 0.76 1.32 0 1.44 c-2.88 0.44 -5.8 2.08 -7.32 3.6 c-1.56 1.56 -1.96 2.24 -1.2 3.24 c2.28 3.04 7 8.2 9.68 8.52 c0.32 0.04 0.68 0.08 0.68 0.6 c0 0.4 -0.44 0.48 -0.96 0.68 z M95.384 40.64 c-2.76 0 -5.48 -1.64 -5.48 -4.88 c0 -2.16 1.28 -3.32 4.16 -4.24 l5.84 -1.88 c1.2 -0.4 1.56 -0.44 1.56 -1.44 l0 -1.6 c0 -2.48 -1.24 -2.76 -2.8 -2.76 c-2.12 0 -4.64 0.56 -6.12 0.72 c-0.36 0.04 -0.6 -0.16 -0.64 -0.44 l-0.08 -0.72 c-0.12 -1.04 5.96 -2.72 9 -2.72 c4.64 0 4.96 3.68 4.96 6.52 l0 8.44 c0 3.36 2.88 2 3.44 2.36 c0.2 0.12 0.28 0.4 0.28 0.56 c0 0.84 -3.4 2.08 -5.08 2.08 c-1.28 0 -2.08 -0.72 -3.04 -2.76 c-3.8 2.32 -4.64 2.76 -6 2.76 z M97.304 37.68 c2.04 0 4.2 -1.44 4.2 -3.48 l0 -3.12 c-0.24 0.16 -0.2 0.2 -0.96 0.44 l-4.04 1.36 c-1.28 0.44 -1.92 1.12 -1.92 2.32 c0 1.52 1.04 2.48 2.72 2.48 z M130.87599999999998 40.64 c-8.32 0 -14.44 -6.16 -14.44 -14.48 c0 -8.08 5.76 -14.8 14.52 -14.8 c8.36 0 14.44 6.12 14.44 14.44 c0 8.12 -5.72 14.84 -14.52 14.84 z M132.43599999999998 37.92 c3.52 0 8.2 -2.32 8.2 -9.88 c0 -8.08 -5.48 -13.96 -11.24 -13.96 c-3.52 0 -8.16 2.32 -8.16 9.84 c0 8.16 5.48 14 11.2 14 z M154.002 40.64 c-3.24 0 -6.64 -1.32 -6.2 -2.52 l0.64 -1.68 c0.92 -2.44 2.56 1.76 7.04 1.76 c3.88 0 4.4 -2.56 1.32 -4.12 l-5.24 -2.64 c-6.12 -3.08 -4.08 -10.76 3.76 -10.76 c2.96 0 6 1.2 5.52 2.36 l-0.68 1.68 c-0.96 2.4 -2.48 -1.56 -6.44 -1.56 c-3.04 0 -3.6 2.56 -0.8 3.96 l5.44 2.76 c6.4 3.24 4.24 10.76 -4.36 10.76 z M197.168 38.8 c0.32 0.04 0.04 1.2 -0.24 1.2 l-8.8 0 c-0.28 0 -0.44 -1.16 -0.24 -1.2 c1.4 -0.28 2.24 -0.92 2.24 -3.04 l0 -7.68 c0 -3.36 -1.68 -4.12 -3.84 -4.12 c-1.48 0 -3.96 0.52 -3.96 1.52 l0 10.28 c0 2.32 1.32 2.92 2.4 3.04 c0.32 0.04 0.04 1.2 -0.24 1.2 l-8.44 0 c-0.28 0 -0.48 -1.16 -0.24 -1.2 c1.4 -0.24 2.24 -0.92 2.24 -3.04 l0 -7.68 c0 -3.36 -1.52 -4.12 -3.8 -4.12 c-1.52 0 -4 0.48 -4 1.52 l0 10.28 c0 2.12 1.08 2.84 2.4 3.04 c0.28 0.04 0.08 1.2 -0.24 1.2 l-8.92 0 c-0.32 0 -0.6 -1.16 -0.28 -1.2 c1.2 -0.16 2.76 -0.72 2.76 -3.04 l0 -9.6 c0 -1.92 -1.04 -2.36 -2.72 -2.56 c-0.32 -0.04 -0.16 -1.08 0.16 -1.16 l6.32 -1.76 c0.48 -0.12 0.68 0.2 0.68 0.6 c0 1.12 0.32 1.56 0.96 1.28 c1.64 -0.72 3.48 -1.88 5.72 -1.88 c2.2 0 3.64 1.04 4.44 2.4 c2.24 -1.28 5.2 -2.4 7.56 -2.4 c3.88 0 5.32 3 5.32 5.6 l0 9.48 c0 2.32 1.56 2.88 2.76 3.04 z M203.97400000000002 40.64 c-2.76 0 -5.48 -1.64 -5.48 -4.88 c0 -2.16 1.28 -3.32 4.16 -4.24 l5.84 -1.88 c1.2 -0.4 1.56 -0.44 1.56 -1.44 l0 -1.6 c0 -2.48 -1.24 -2.76 -2.8 -2.76 c-2.12 0 -4.64 0.56 -6.12 0.72 c-0.36 0.04 -0.6 -0.16 -0.64 -0.44 l-0.08 -0.72 c-0.12 -1.04 5.96 -2.72 9 -2.72 c4.64 0 4.96 3.68 4.96 6.52 l0 8.44 c0 3.36 2.88 2 3.44 2.36 c0.2 0.12 0.28 0.4 0.28 0.56 c0 0.84 -3.4 2.08 -5.08 2.08 c-1.28 0 -2.08 -0.72 -3.04 -2.76 c-3.8 2.32 -4.64 2.76 -6 2.76 z M205.894 37.68 c2.04 0 4.2 -1.44 4.2 -3.48 l0 -3.12 c-0.24 0.16 -0.2 0.2 -0.96 0.44 l-4.04 1.36 c-1.28 0.44 -1.92 1.12 -1.92 2.32 c0 1.52 1.04 2.48 2.72 2.48 z M218.5 40 c-0.32 0 -0.6 -1.16 -0.28 -1.2 c1.2 -0.16 2.76 -0.72 2.76 -3.04 l0 -9.6 c0 -1.92 -1.04 -2.36 -2.72 -2.56 c-0.32 -0.04 -0.16 -1.08 0.16 -1.16 l6.32 -1.76 c0.48 -0.12 0.68 0.2 0.68 0.6 c0 1.12 0.32 1.52 0.96 1.28 c1.96 -0.72 3.84 -1.88 6.24 -1.88 c3.92 0 5.28 3 5.28 5.6 l0 9.48 c0 2.32 1.56 2.88 2.76 3.04 c0.32 0.04 0.04 1.2 -0.24 1.2 l-8.92 0 c-0.28 0 -0.48 -1.16 -0.24 -1.2 c1.52 -0.24 2.36 -0.92 2.36 -3.04 l0 -7.68 c0 -3.36 -1.64 -4.12 -4.2 -4.12 c-1.72 0 -4.16 0.48 -4.16 1.52 l0 10.28 c0 2.12 1.08 2.84 2.56 3.04 c0.28 0.04 0.04 1.2 -0.28 1.2 l-9.04 0 z M251.70600000000002 40.64 c-5.56 0 -9.72 -4 -9.72 -9.8 c0 -5.64 4 -10.16 9.88 -10.16 c5.56 0 9.72 4 9.72 9.8 c0 5.64 -3.96 10.16 -9.88 10.16 z M252.866 38.24 c1.96 0 4.36 -1.2 4.36 -5.8 c0 -5.24 -2.84 -9.36 -6.56 -9.36 c-1.92 0 -4.32 1.2 -4.32 5.76 c0 5.28 2.84 9.4 6.52 9.4 z M283.27200000000005 21.4 c0.56 0 0.56 1.32 0.08 1.44 c-1.16 0.32 -2.2 1.44 -3.48 4.28 l-3.96 9.04 c-0.84 1.92 -1.12 2.92 -1.4 3.92 l-2.28 0.4 l-5.8 -13.32 c-1.28 -3 -2.36 -4 -3.52 -4.32 c-0.48 -0.12 -0.48 -1.44 0.04 -1.44 l8.12 0 c0.6 0 0.6 1.16 0.08 1.44 c-0.96 0.52 -1.36 1.52 -0.16 4.32 l3.24 7.56 l3.24 -7.6 c1.24 -2.84 1 -4.08 -0.8 -4.28 c-0.44 -0.04 -0.44 -1.44 0.04 -1.44 l6.56 0 z M288.87800000000004 16.92 c-0.88 0 -3.04 -1.88 -3.04 -3.04 s2.16 -3.04 3.04 -3.04 s3.04 1.88 3.04 3.04 s-2.16 3.04 -3.04 3.04 z M284.51800000000003 40 c-0.32 0 -0.6 -1.16 -0.28 -1.2 c1.24 -0.16 2.8 -0.72 2.8 -3.04 l0 -8.84 c0 -2.44 -0.64 -3.04 -2.72 -3.32 c-0.32 -0.04 -0.2 -1.08 0.08 -1.16 l7.08 -1.68 c0.4 -0.08 0.6 0.2 0.48 0.72 c-0.28 1.28 -0.64 3.64 -0.64 6.24 l0 8.04 c0 2.32 1.56 2.88 2.8 3.04 c0.28 0.04 0.04 1.2 -0.28 1.2 l-9.32 0 z M301.124 16.72 l3.64 -5.28 c0.72 -1.04 4.08 2.04 3.12 2.76 l-5.24 3.96 c-0.52 0.4 -1.92 -0.88 -1.52 -1.44 z M306.124 40.64 c-4.36 0 -10.72 -2.6 -10.72 -9.52 c0 -4.64 2.92 -10.44 10.72 -10.44 c2.4 0 5.56 0.76 5.24 1.96 l-0.36 1.4 c-0.92 3.64 -2.84 -0.72 -6.96 -0.72 c-2.92 0 -4.32 2.36 -4.32 5.56 c0 5.64 4.72 8.68 7.6 8.68 c0.4 0 1.68 -0.24 3.56 -0.68 c0.36 -0.08 0.68 1 0.44 1.12 c-1.56 0.84 -4.44 2.64 -5.2 2.64 z"/></g>
			</g>
		</svg>
	